<svg width="1024" height="1024" viewBox="0 0 1024 1024" fill="none" xmlns="http://www.w3.org/2000/svg">
  <defs>
    <linearGradient id="bg" x1="144" y1="120" x2="900" y2="920" gradientUnits="userSpaceOnUse">
      <stop stop-color="#112634"/>
      <stop offset="0.52" stop-color="#0D1A24"/>
      <stop offset="1" stop-color="#071117"/>
    </linearGradient>
    <linearGradient id="frame" x1="196" y1="188" x2="828" y2="836" gradientUnits="userSpaceOnUse">
      <stop stop-color="#183645"/>
      <stop offset="1" stop-color="#0C1720"/>
    </linearGradient>
    <linearGradient id="accentLeft" x1="218" y1="310" x2="462" y2="716" gradientUnits="userSpaceOnUse">
      <stop stop-color="#53E4C2"/>
      <stop offset="1" stop-color="#1B7D70"/>
    </linearGradient>
    <linearGradient id="accentRight" x1="562" y1="310" x2="806" y2="716" gradientUnits="userSpaceOnUse">
      <stop stop-color="#FFCB77"/>
      <stop offset="1" stop-color="#D56E1A"/>
    </linearGradient>
    <linearGradient id="commandBar" x1="186" y1="742" x2="840" y2="850" gradientUnits="userSpaceOnUse">
      <stop stop-color="#F8B35C"/>
      <stop offset="1" stop-color="#C95D1E"/>
    </linearGradient>
    <filter id="shadow" x="72" y="72" width="880" height="880" filterUnits="userSpaceOnUse" color-interpolation-filters="sRGB">
      <feFlood flood-opacity="0" result="BackgroundImageFix"/>
      <feColorMatrix in="SourceAlpha" type="matrix" values="0 0 0 0 0 0 0 0 0 0 0 0 0 0 0 0 0 0 127 0" result="hardAlpha"/>
      <feOffset dy="24"/>
      <feGaussianBlur stdDeviation="36"/>
      <feComposite in2="hardAlpha" operator="out"/>
      <feColorMatrix type="matrix" values="0 0 0 0 0.008 0 0 0 0 0.043 0 0 0 0 0.067 0 0 0 0.42 0"/>
      <feBlend mode="normal" in2="BackgroundImageFix" result="effect1_dropShadow_1_2"/>
      <feBlend mode="normal" in="SourceGraphic" in2="effect1_dropShadow_1_2" result="shape"/>
    </filter>
  </defs>

  <g filter="url(#shadow)">
    <rect x="96" y="96" width="832" height="832" rx="212" fill="url(#bg)"/>
    <rect x="112" y="112" width="800" height="800" rx="196" stroke="#5EE3C4" stroke-opacity="0.24" stroke-width="8"/>
    <rect x="166" y="166" width="692" height="692" rx="78" fill="url(#frame)" stroke="#F6BE74" stroke-opacity="0.22" stroke-width="4"/>

    <rect x="190" y="190" width="644" height="98" rx="30" fill="#101F2B" stroke="#5EE3C4" stroke-opacity="0.18" stroke-width="3"/>
    <circle cx="236" cy="239" r="12" fill="#FF8F70"/>
    <circle cx="274" cy="239" r="12" fill="#FFCB77"/>
    <circle cx="312" cy="239" r="12" fill="#53E4C2"/>
    <rect x="356" y="220" width="248" height="38" rx="19" fill="#162B39"/>
    <rect x="620" y="220" width="168" height="38" rx="19" fill="#162B39"/>

    <rect x="190" y="314" width="282" height="402" rx="42" fill="#0F1D27" stroke="url(#accentLeft)" stroke-width="8"/>
    <rect x="552" y="314" width="282" height="402" rx="42" fill="#0F1D27" stroke="url(#accentRight)" stroke-width="8"/>
    <rect x="492" y="328" width="40" height="374" rx="20" fill="#162734"/>
    <rect x="504" y="362" width="16" height="306" rx="8" fill="#F6BE74" fill-opacity="0.75"/>

    <rect x="224" y="360" width="188" height="24" rx="12" fill="#D6FFF6" fill-opacity="0.13"/>
    <rect x="224" y="410" width="156" height="24" rx="12" fill="#D6FFF6" fill-opacity="0.13"/>
    <rect x="224" y="460" width="194" height="30" rx="15" fill="#53E4C2"/>
    <rect x="224" y="520" width="142" height="24" rx="12" fill="#D6FFF6" fill-opacity="0.13"/>
    <rect x="224" y="570" width="172" height="24" rx="12" fill="#D6FFF6" fill-opacity="0.13"/>
    <rect x="224" y="620" width="118" height="24" rx="12" fill="#D6FFF6" fill-opacity="0.13"/>

    <rect x="586" y="360" width="164" height="24" rx="12" fill="#FFF1D6" fill-opacity="0.13"/>
    <rect x="586" y="410" width="192" height="24" rx="12" fill="#FFF1D6" fill-opacity="0.13"/>
    <rect x="586" y="460" width="206" height="30" rx="15" fill="#FFB95C"/>
    <rect x="586" y="520" width="136" height="24" rx="12" fill="#FFF1D6" fill-opacity="0.13"/>
    <rect x="586" y="570" width="166" height="24" rx="12" fill="#FFF1D6" fill-opacity="0.13"/>
    <rect x="586" y="620" width="126" height="24" rx="12" fill="#FFF1D6" fill-opacity="0.13"/>

    <path d="M524 470L566 430V455H616V485H566V510L524 470Z" fill="#FFF4E0"/>
    <path d="M500 560L458 602V577H408V547H458V522L500 560Z" fill="#FFF4E0" fill-opacity="0.92"/>

    <rect x="190" y="744" width="644" height="104" rx="34" fill="url(#commandBar)"/>
    <rect x="220" y="774" width="120" height="44" rx="22" fill="#16222C" fill-opacity="0.84"/>
    <rect x="366" y="774" width="120" height="44" rx="22" fill="#16222C" fill-opacity="0.84"/>
    <rect x="512" y="774" width="120" height="44" rx="22" fill="#16222C" fill-opacity="0.84"/>
    <rect x="658" y="774" width="146" height="44" rx="22" fill="#16222C" fill-opacity="0.84"/>
    <path d="M265 800C282 770 317 770 326 793C334 813 315 829 282 846C249 829 230 813 238 793C247 770 282 770 265 800Z" fill="#FFB95C"/>
    <rect x="393" y="789" width="66" height="14" rx="7" fill="#53E4C2"/>
    <rect x="539" y="789" width="66" height="14" rx="7" fill="#FFF4E0"/>
    <rect x="688" y="789" width="86" height="14" rx="7" fill="#FFD8A8"/>
  </g>
</svg>
